{"title":"FootSieBabes.Romanian.Florina.Rose.xXx.2014-ViK","uid":10710908,"size":922438496,"categoryP":"porn","categoryS":"movies","magnet":"?xt=urn:btih:181dea13a0d6d68eef78e5165a935ecb6c3d3dee&amp;dn=FootSieBabes.Romanian.Florina.Rose.xXx.2014-ViK&amp;tr=udp%3A%2F%2Ftracker.openbittorrent.com%3A80&amp;tr=udp%3A%2F%2Fopen.demonii.com%3A1337&amp;tr=udp%3A%2F%2Ftracker.coppersurfer.tk%3A6969&amp;tr=udp%3A%2F%2Fexodus.desync.com%3A6969","seeders":0,"leechers":2,"uploader":"iH2OSO4","files":-1,"time":1407352683,"description":"Hot Romanian girl Florina Rose aka Jennifer Love was born back in 1986and she knew that one day she would make men around the world achingfor her. When she joined the porn industry she realized that her38B-23-34 body will make people love her more than she thought in thefirst instant so she started working on her career with much joy and enthusiasm.\n\nSOURCE :  &lt;a href=&quot; http://vasileturcu.ro/i/ros6568.html&quot; rel=&quot;nofollow&quot; target=&quot;_NEW&quot;&gt; http://vasileturcu.ro/i/ros6568.html&lt;/a&gt;\n\nGeneral\nFootSieBabes.Romanian.Florina.Rose.xXx.2014-ViK.mp4\nFormat                           : MPEG-4\nFormat profile                   : Base Media\nCodec ID                         : isom\nFile size                        : 879 MiB\nDuration                         : 34mn 22s\nOverall bit rate                 : 3 576 Kbps\nEncoded date                     : UTC 2014-08-06 17:05:16\nTagged date                      : UTC 2014-08-06 17:05:16\n\nVideo\nID                               : 1\nFormat                           : MPEG-4 Visual\nFormat profile                   : Simple@L1\nFormat settings, BVOP            : No\nFormat settings, QPel            : No\nFormat settings, GMC             : No warppoints\nFormat settings, Matrix          : Default (H.263)\nCodec ID                         : 20\nDuration                         : 34mn 22s\nBit rate mode                    : Variable\nBit rate                         : 3 449 Kbps\nMaximum bit rate                 : 7 153 Kbps\nWidth                            : 968 pixels\nHeight                           : 544 pixels\nDisplay aspect ratio             : 16:9\nFrame rate mode                  : Constant\nFrame rate                       : 25.000 fps\nColor space                      : YUV\nChroma subsampling               : 4:2:0\nBit depth                        : 8 bits\nScan type                        : Progressive\nCompression mode                 : Lossy\nBits/(Pixel*Frame)               : 0.262\nStream size                      : 848 MiB (96%)\nWriting library                  : Lavc53.8.0\nEncoded date                     : UTC 2014-08-06 17:05:16\nTagged date                      : UTC 2014-08-06 17:05:58\n\nAudio\nID                               : 2\nFormat                           : AAC\nFormat/Info                      : Advanced Audio Codec\nFormat profile                   : LC\nCodec ID                         : 40\nDuration                         : 34mn 22s\nBit rate mode                    : Variable\nBit rate                         : 125 Kbps\nMaximum bit rate                 : 145 Kbps\nChannel(s)                       : 2 channels\nChannel positions                : Front: L R\nSampling rate                    : 44.1 KHz\nCompression mode                 : Lossy\nStream size                      : 30.8 MiB (4%)\nEncoded date                     : UTC 2014-08-06 17:05:48\nTagged date                      : UTC 2014-08-06 17:05:58\n","torrent":{"xt":"urn:btih:181dea13a0d6d68eef78e5165a935ecb6c3d3dee","amp;dn":"FootSieBabes.Romanian.Florina.Rose.xXx.2014-ViK","amp;tr":["udp%3A%2F%2Ftracker.openbittorrent.com%3A80","udp%3A%2F%2Fopen.demonii.com%3A1337","udp%3A%2F%2Ftracker.coppersurfer.tk%3A6969","udp%3A%2F%2Fexodus.desync.com%3A6969"],"infoHash":"181dea13a0d6d68eef78e5165a935ecb6c3d3dee","infoHashBuffer":{"type":"Buffer","data":[24,29,234,19,160,214,214,142,239,120,229,22,90,147,94,203,108,61,61,238]},"announce":[],"urlList":[]}}